<svg width="100%" viewBox="0 0 1282 720" fill="none" xmlns="http://www.w3.org/2000/svg">
<path d="M3.00001 0C428.033 0 853.065 0 1278.54 0.468508C1278.98 237.58 1278.98 474.222 1278.98 710.865C1278.98 718.995 1278.98 718.99 1270.78 718.99C997.97 718.991 725.164 718.994 452.358 718.993C302.874 718.992 153.389 718.984 3.77401 718.589C3.43903 716.222 3.05514 714.246 3.05489 712.269C3.03041 514.167 3.03706 316.064 3.03593 117.961C3.03571 78.641 3.01258 39.3205 3.00001 0ZM873.313 529.002C873.21 529.334 873.107 529.666 872.998 530C872.998 530 873 530.007 872.281 530.374C871.48 529.909 870.047 529.515 869.986 528.968C869.73 526.666 869.887 524.318 869.886 521.986C869.884 516.029 869.552 515.779 863.362 517.25C863.362 542.383 863.362 567.558 863.362 592.601C868.335 594.231 870.209 592.766 869.958 587.832C869.654 581.852 869.872 575.844 869.89 569.849C869.925 558.737 868.968 547.496 874.407 536.437C875.944 534.271 877.481 532.105 879.578 530.003C879.786 529.706 879.994 529.41 880.716 528.905C881.171 528.339 881.627 527.772 882.763 527.143C883.319 526.824 883.876 526.505 884.781 526.172C884.781 526.172 884.995 525.896 885.728 525.82C894.529 520.892 903.605 519.997 913.004 524.009C913.004 524.009 913.04 523.985 913.231 524.534C913.845 524.969 914.459 525.403 915.072 525.928C915.072 525.928 915.162 525.927 915.364 526.614C919.391 531.988 919.974 538.279 920.006 544.652C920.077 558.978 920.015 573.304 920.037 587.63C920.046 593.396 920.708 593.836 926.589 592.03C926.669 590.969 926.832 589.827 926.832 588.685C926.828 573.359 926.934 558.032 926.697 542.71C926.63 538.428 925.834 534.091 924.832 529.909C923.536 524.503 920.259 520.414 915.247 517.749C905.504 512.567 889.56 514.516 881 521.998C881 521.998 881.019 522.035 880.394 522.169C879.55 523.068 878.705 523.967 878 524.998C878 524.998 877.864 524.862 877.267 525C876.433 525.881 875.599 526.762 874.282 527.88C874.132 528.19 873.981 528.501 873.998 528.993C873.998 528.993 873.825 528.816 873.313 529.002ZM507.78 207.5C507.779 185.167 507.835 162.834 507.719 140.502C507.7 136.702 507.461 132.756 506.412 129.142C504.418 122.279 499.471 121.286 494.878 126.573C480.78 142.8 469.246 160.735 461.621 180.815C435.962 248.386 443.553 312.245 485.98 370.804C535.471 439.11 626.668 467.613 705.717 438.914C778.03 412.66 822.308 360.776 834.96 284.661C845.381 221.964 827.425 166.5 784.018 119.968C754.453 88.2742 717.763 69.0606 674.976 61.7294C648.163 57.1351 621.469 58.11 595.167 64.8765C583.33 67.9219 571.87 72.4354 560.238 76.2828C560.202 76.7334 560.166 77.184 560.13 77.6346C567.653 81.5145 567.948 88.4627 567.964 95.3281C568.045 131.16 567.989 166.992 568.009 202.825C568.02 220.99 567.534 239.177 568.242 257.316C570.082 304.526 614.866 337.962 660.367 326.529C693.7 318.154 716.722 288.811 716.904 254.217C717.032 229.885 716.942 205.552 716.93 181.22C716.929 179.619 716.753 178.019 716.627 175.874C709.282 175.874 702.39 175.874 694.04 175.874C712.147 154.093 729.365 133.381 747.004 112.162C764.774 133.582 781.892 154.216 799.01 174.85C798.807 175.291 798.603 175.732 798.4 176.173C791.381 176.173 784.363 176.173 777.08 176.173C777.08 178.957 777.078 180.945 777.081 182.933C777.114 207.099 777.075 231.264 777.208 255.429C777.298 271.816 774.201 287.637 768.303 302.798C743.22 367.278 675.173 401.765 607.727 384.415C551.665 369.994 510.032 318.74 507.952 260.992C507.322 243.515 507.806 225.998 507.78 207.5ZM640.82 591.789C646.408 592.456 651.985 593.276 657.591 593.661C658.691 593.737 660.85 592.196 660.912 591.292C661.244 586.408 661.069 581.489 661.069 576.608C657.903 576.384 655.573 576.346 653.281 576.031C647.942 575.296 643.267 571.734 643.04 566.624C642.534 555.247 642.882 543.832 642.882 531.731C648.376 531.731 653.922 531.731 659.805 531.731C659.805 527.557 659.635 524.065 659.854 520.598C660.063 517.281 658.715 516.164 655.51 516.297C651.126 516.478 646.729 516.342 642.201 516.342C642.201 513.02 642.197 510.695 642.202 508.371C642.231 493.661 642.233 493.766 627.511 493.909C624.055 493.943 622.773 494.937 622.912 498.456C623.14 504.216 622.974 509.991 622.974 515.991C613.735 515.991 605.17 515.991 596.66 515.991C595.064 505.754 599.071 502.396 614.794 500.622C614.883 499.558 615.031 498.434 615.061 497.308C615.441 482.952 615.05 482.618 600.59 484.79C585.407 487.072 577.461 495.91 576.688 511.359C576.615 512.814 576.456 514.264 576.318 515.956C573.155 516.229 570.253 516.478 567.291 516.733C567.291 521.92 567.291 526.675 567.291 531.703C570.499 531.912 573.407 532.102 576.747 532.32C576.747 552.628 576.747 572.558 576.747 593.035C581.826 593.035 586.463 592.834 591.075 593.096C595.014 593.319 596.196 591.867 596.147 587.944C595.941 571.293 596.04 554.639 596.027 537.986C596.026 536.077 596.027 534.168 596.027 532.357C605.362 532.357 613.774 532.357 622.678 532.357C622.678 543.898 622.543 555.04 622.714 566.178C622.901 578.373 628.372 587.134 640.82 591.789ZM229.707 590.209C242.384 583.936 250.289 573.565 250.858 559.709C251.834 535.922 251.289 512.071 251.155 488.248C251.148 487.041 249.107 484.977 247.819 484.81C244.216 484.342 240.488 484.922 236.851 484.603C232.501 484.22 231.143 485.705 231.189 490.167C231.41 511.324 231.314 532.484 231.226 553.643C231.214 556.437 231.046 559.374 230.19 561.997C226.467 573.405 216.189 578.272 201.2 576.017C190.911 574.47 184.011 566.163 183.944 554.785C183.824 534.46 183.885 514.134 183.871 493.808C183.869 491.007 183.87 488.207 183.87 485.153C176.995 485.153 170.664 485.153 164.074 485.153C164.074 510.123 163.371 534.622 164.331 559.055C164.933 574.389 173.694 585.618 188.176 591.334C201.764 596.697 215.522 596.349 229.707 590.209ZM337.735 533.756C334.174 525.445 328.559 518.899 319.976 515.856C306.473 511.069 293.885 512.808 283.197 523.72C281.411 515.042 281.411 515.042 273.199 515.102C271.868 515.112 270.513 515.294 269.21 515.107C265.179 514.53 264.129 516.267 264.16 520.162C264.324 540.798 264.23 561.437 264.224 582.075C264.22 594.224 264.134 606.375 264.303 618.522C264.326 620.149 265.536 623.099 266.36 623.158C272.065 623.568 277.814 623.374 284.154 623.374C284.154 610.49 284.154 598.485 284.154 586.107C285.248 586.683 285.772 586.816 286.091 587.147C298.878 600.396 327.185 597.584 337.289 574.83C343.177 561.573 342.844 548.007 337.735 533.756ZM378.368 513.871C365.826 516.044 357.308 523.184 352.508 534.875C347.682 546.628 347.549 558.699 351.303 570.601C357.876 591.446 378.768 600.841 397.4 591.555C400.817 589.851 403.701 587.077 407.181 584.543C407.547 587.591 407.854 590.138 408.203 593.035C413.215 593.035 417.864 592.936 422.506 593.071C425.488 593.159 426.099 591.667 426.095 589.062C426.048 555.575 426.038 522.088 426.115 488.601C426.122 485.508 424.934 484.468 421.986 484.59C418.16 484.747 414.319 484.779 410.494 484.625C407.473 484.503 406.403 485.643 406.455 488.695C406.61 497.689 406.533 506.686 406.5 515.682C406.494 517.373 406.273 519.063 406.072 521.85C397.856 513.954 388.784 512.946 378.368 513.871ZM512.345 532.5C517.716 531.658 523.097 530.073 528.455 530.15C536.117 530.26 540.232 536.094 538.961 544.195C536.583 544.195 534.106 544.082 531.642 544.215C522.118 544.732 512.725 545.933 504.102 550.428C489.859 557.85 486.712 575.864 497.66 587.115C504.844 594.497 518.722 597.431 528.281 592.953C532.763 590.854 536.663 587.515 541.16 584.516C541.16 586.316 540.873 588.167 541.26 589.865C541.519 591.004 542.687 592.763 543.526 592.809C548.604 593.084 553.704 592.946 559.022 592.946C559.022 574.394 559.699 556.563 558.786 538.813C558.17 526.849 551.153 518.273 539.145 515.118C525.107 511.431 511.716 513.712 499.281 521.099C498.191 521.747 497.128 524.289 497.56 525.322C499.195 529.238 501.452 532.896 503.572 536.829C506.628 535.328 509.145 534.091 512.345 532.5ZM460.061 521.367C459.272 519.319 458.664 515.609 457.662 515.499C452.297 514.912 446.834 515.222 441.009 515.222C441.009 540.675 440.968 565.319 441.155 589.96C441.163 590.994 443.225 592.776 444.456 592.895C448.419 593.276 452.452 592.864 456.439 593.093C460.028 593.3 460.955 591.797 460.906 588.401C460.757 578.071 460.628 567.726 461.02 557.407C461.563 543.114 471.687 532.522 485.072 533.623C485.873 533.689 486.701 533.448 488.155 533.272C488.155 527.775 488.345 522.312 487.98 516.885C487.915 515.907 485.585 514.336 484.274 514.308C475.978 514.135 469.653 518.095 464.681 524.486C463.536 525.959 462.453 527.48 461.341 528.978C460.901 528.833 460.461 528.689 460.02 528.544C460.02 526.447 460.02 524.35 460.061 521.367ZM677.442 527.488C681.148 512.34 689.498 500.672 704.121 494.724C722.693 487.171 740.009 491.147 755.887 502.396C760.658 498.375 760.676 497.757 756.327 494.607C738.469 481.67 710.55 481.09 692.673 493.285C669.906 508.815 662.291 540.836 675.413 565.872C688.656 591.141 717.247 601.586 744.15 590.903C751.127 588.133 757.608 584.528 762.694 578.761C760.611 574.985 758.554 574.052 755.129 576.975C752.378 579.322 749.177 581.244 745.949 582.917C725.951 593.283 701.19 588.596 687.803 572.08C677.333 559.162 674.829 544.345 677.442 527.488ZM819.227 594.771C825.738 592.439 832.482 590.595 838.687 587.625C843.901 585.128 843.667 584.019 839.246 579.632C825.565 589.691 811.134 592.36 796.445 581.999C787.222 575.494 783.693 565.896 783.897 554.006C786.259 554.006 788.203 554.005 790.147 554.006C806.8 554.011 823.454 554.009 840.108 554.031C842.502 554.034 844.773 554.338 844.83 550.696C844.966 541.952 843.222 533.747 837.953 526.659C827.448 512.527 805.247 510.835 790.611 522.892C777.682 533.542 772.981 553.229 779.273 570.372C785.058 586.135 799.429 595.139 819.227 594.771ZM1094.07 535.398C1091.06 522.579 1084.76 516.565 1072.62 515.255C1063.46 514.267 1054.69 515.815 1046.51 520.188C1041.59 522.817 1041.51 524.072 1046.21 528.205C1053.06 523.672 1060.68 521.129 1069.11 521.498C1082.62 522.09 1090.37 532.324 1087.34 546.397C1083.87 546.397 1080.15 545.883 1076.63 546.496C1067.35 548.114 1057.83 549.28 1049.03 552.398C1040.11 555.557 1036 563.4 1036.06 572.977C1036.12 581.408 1040.1 587.6 1047.5 591.494C1060.51 598.334 1075.65 594.986 1084.7 583.399C1085.53 582.331 1086.44 581.32 1088.18 579.252C1088.18 583.144 1088.35 585.614 1088.15 588.051C1087.73 592.928 1090.04 593.852 1094.2 592.547C1094.4 592.065 1094.75 591.613 1094.75 591.164C1094.61 572.857 1094.44 554.55 1094.07 535.398ZM958.257 540.501C958.243 536.335 958.43 532.156 958.156 528.008C957.902 524.18 959.502 523.017 963.102 523.244C966.753 523.474 970.464 523.576 974.08 523.149C975.485 522.982 976.702 521.215 978.004 520.177C976.696 519.155 975.441 517.347 974.069 517.252C968.976 516.9 963.845 517.112 958.117 517.112C958.117 509.649 958.117 502.894 958.117 496.376C952.763 494.558 951.054 496.394 951.456 501.153C951.708 504.131 951.231 507.178 951.564 510.14C952.143 515.302 950.784 518.062 944.911 517.29C943.923 517.161 942.656 519.161 941.517 520.177C942.669 521.191 943.78 522.258 944.999 523.184C945.32 523.429 945.98 523.304 946.47 523.238C950.42 522.703 951.647 524.422 951.566 528.331C951.339 539.324 951.34 550.327 951.53 561.321C951.616 566.291 951.841 571.365 952.917 576.188C955.361 587.145 963.705 593.557 974.842 593.762C979.704 593.851 980.401 592.854 978.895 587.506C972.529 587.526 965.719 586.978 962.443 580.62C960.097 576.067 958.839 570.632 958.418 565.482C957.769 557.537 958.253 549.499 958.257 540.501ZM1000.75 556.721C1002.23 550.447 1003.23 544.006 1005.33 537.945C1007.39 531.992 1011.57 527.162 1017.54 524.728C1020.95 523.333 1024.87 523.152 1028.52 522.431C1029.19 516.334 1028.82 515.823 1023.09 516.192C1014.96 516.715 1009.2 521.156 1004.75 527.643C1003.73 529.131 1002.62 530.563 1001.55 532.022C1000.62 528.29 1000.63 524.979 1000.62 521.668C1000.62 519.174 1001.1 516.553 997.096 516.582C993.329 516.609 993.827 519.134 993.824 521.396C993.8 543.87 993.819 566.344 993.8 588.818C993.798 591.129 993.756 593.06 997.069 593.095C1000.52 593.131 1000.71 591.256 1000.7 588.638C1000.64 578.317 1000.69 567.996 1000.75 556.721ZM1131.2 593.712C1132.25 592.389 1133.29 591.066 1134.34 589.743C1133.21 588.872 1132.15 587.397 1130.93 587.236C1126.36 586.638 1124.15 583.914 1123.52 579.73C1123.13 577.115 1123.13 574.428 1123.13 571.773C1123.1 544.989 1123.04 518.204 1123.18 491.421C1123.2 486.859 1121.73 485.238 1117.12 486.796C1116.98 487.692 1116.7 488.652 1116.7 489.612C1116.68 519.39 1116.62 549.169 1116.74 578.947C1116.78 587.819 1120.97 592.067 1131.2 593.712Z" fill="#D14F12"/>
<path d="M3.90421 718.979C153.389 718.984 302.874 718.992 452.358 718.993C725.164 718.994 997.97 718.991 1270.78 718.99C1278.98 718.99 1278.98 718.995 1278.98 710.865C1278.98 474.222 1278.98 237.58 1278.99 0.468508C1279 0 1279.5 0 1279.74 0.459656C1279.99 43.2281 1279.99 85.537 1279.99 127.846C1279.99 325.231 1280 522.615 1280 720C854.312 720 428.625 720 2.51361 719.755C2.0899 719.509 2.1727 719.017 2.46198 719.022C3.13558 719.011 3.51989 718.995 3.90421 718.979Z" fill="#9E390E"/>
<path d="M1280.5 720C1280 522.615 1279.99 325.231 1279.99 127.846C1279.99 85.537 1279.99 43.2281 1279.99 0.459641C1280.33 0.166637 1280.94 0.315878 1280.96 0.50276C1281.04 1.83088 1281 3.16667 1281 4.5C1281 243 1281 481.5 1280.5 720Z" fill="#2A0000"/>
<path d="M3.77401 718.589C3.51989 718.995 3.13558 719.011 2.39689 718.562C2.03037 715.1 2.00764 712.101 2.00759 709.103C2.00391 472.735 2.00203 236.368 2.00001 0C2.00001 0 2.50001 0 2.75001 0C3.01258 39.3205 3.03571 78.641 3.03593 117.961C3.03706 316.064 3.03041 514.167 3.05489 712.269C3.05514 714.246 3.43903 716.222 3.77401 718.589Z" fill="#B15A35"/>
<path d="M1.50001 0C2.00203 236.368 2.00391 472.735 2.00759 709.103C2.00764 712.101 2.03037 715.1 2.1076 718.557C2.1727 719.017 2.0899 719.509 2.04494 719.755C1.66665 719.833 1.05618 719.684 1.04444 719.497C0.961019 718.169 1.00001 716.833 1.00001 715.5C1.00001 477 1.00001 238.5 1.50001 0Z" fill="#601A00"/>
<path d="M507.78 208C507.806 225.998 507.322 243.515 507.952 260.992C510.032 318.74 551.665 369.994 607.727 384.415C675.173 401.765 743.22 367.278 768.303 302.798C774.201 287.637 777.298 271.816 777.208 255.429C777.075 231.264 777.114 207.099 777.081 182.933C777.078 180.945 777.08 178.957 777.08 176.173C784.363 176.173 791.381 176.173 798.4 176.173C798.603 175.732 798.807 175.291 799.01 174.85C781.892 154.216 764.774 133.582 747.004 112.162C729.365 133.381 712.147 154.093 694.04 175.874C702.39 175.874 709.282 175.874 716.627 175.874C716.753 178.019 716.929 179.619 716.93 181.22C716.942 205.552 717.032 229.885 716.904 254.217C716.722 288.811 693.7 318.154 660.367 326.529C614.866 337.962 570.082 304.526 568.242 257.316C567.534 239.177 568.02 220.99 568.009 202.825C567.989 166.992 568.045 131.16 567.964 95.3281C567.948 88.4627 567.653 81.5145 560.13 77.6346C560.166 77.184 560.202 76.7334 560.238 76.2828C571.87 72.4354 583.33 67.9219 595.167 64.8765C621.469 58.11 648.163 57.1351 674.976 61.7294C717.763 69.0606 754.453 88.2742 784.018 119.968C827.425 166.5 845.381 221.964 834.96 284.661C822.308 360.776 778.03 412.66 705.717 438.914C626.668 467.613 535.471 439.11 485.98 370.804C443.553 312.245 435.962 248.386 461.621 180.815C469.246 160.735 480.78 142.8 494.878 126.573C499.471 121.286 504.418 122.279 506.412 129.142C507.461 132.756 507.7 136.702 507.719 140.502C507.835 162.834 507.779 185.167 507.78 208Z" fill="#FFFDFC"/>
<path d="M640.448 591.662C628.372 587.134 622.901 578.373 622.714 566.178C622.543 555.04 622.678 543.898 622.678 532.357C613.774 532.357 605.362 532.357 596.027 532.357C596.027 534.168 596.026 536.077 596.027 537.986C596.04 554.639 595.941 571.293 596.147 587.944C596.196 591.867 595.014 593.319 591.075 593.096C586.463 592.834 581.826 593.035 576.747 593.035C576.747 572.558 576.747 552.628 576.747 532.32C573.407 532.102 570.499 531.912 567.291 531.703C567.291 526.675 567.291 521.92 567.291 516.733C570.253 516.478 573.155 516.229 576.318 515.956C576.456 514.264 576.615 512.814 576.688 511.359C577.461 495.91 585.407 487.072 600.59 484.79C615.05 482.618 615.441 482.952 615.061 497.308C615.031 498.434 614.883 499.558 614.794 500.622C599.071 502.396 595.064 505.754 596.66 515.991C605.17 515.991 613.735 515.991 622.974 515.991C622.974 509.991 623.14 504.216 622.912 498.456C622.773 494.937 624.055 493.943 627.511 493.909C642.233 493.766 642.231 493.661 642.202 508.371C642.197 510.695 642.201 513.02 642.201 516.342C646.729 516.342 651.126 516.478 655.51 516.297C658.715 516.164 660.063 517.281 659.854 520.598C659.635 524.065 659.805 527.557 659.805 531.731C653.922 531.731 648.376 531.731 642.882 531.731C642.882 543.832 642.534 555.247 643.04 566.624C643.267 571.734 647.942 575.296 653.281 576.031C655.573 576.346 657.903 576.384 661.069 576.608C661.069 581.489 661.244 586.408 660.912 591.292C660.85 592.196 658.691 593.737 657.591 593.661C651.985 593.276 646.408 592.456 640.448 591.662Z" fill="#FEFAF6"/>
<path d="M229.372 590.382C215.522 596.349 201.764 596.697 188.176 591.334C173.694 585.618 164.933 574.389 164.331 559.055C163.371 534.622 164.074 510.123 164.074 485.153C170.664 485.153 176.995 485.153 183.87 485.153C183.87 488.207 183.869 491.007 183.871 493.808C183.885 514.134 183.824 534.46 183.944 554.785C184.011 566.163 190.911 574.47 201.2 576.017C216.189 578.272 226.467 573.405 230.19 561.997C231.046 559.374 231.214 556.437 231.226 553.643C231.314 532.484 231.41 511.324 231.189 490.167C231.143 485.705 232.501 484.22 236.851 484.603C240.488 484.922 244.216 484.342 247.819 484.81C249.107 484.977 251.148 487.041 251.155 488.248C251.289 512.071 251.834 535.922 250.858 559.709C250.289 573.565 242.384 583.936 229.372 590.382Z" fill="#FEF9F5"/>
<path d="M337.893 534.104C342.844 548.007 343.177 561.573 337.289 574.83C327.185 597.584 298.878 600.396 286.091 587.147C285.772 586.816 285.248 586.683 284.154 586.107C284.154 598.485 284.154 610.49 284.154 623.374C277.814 623.374 272.065 623.568 266.36 623.158C265.536 623.099 264.326 620.149 264.303 618.522C264.134 606.375 264.22 594.224 264.224 582.075C264.23 561.437 264.324 540.798 264.16 520.162C264.129 516.267 265.179 514.53 269.21 515.107C270.513 515.294 271.868 515.112 273.199 515.102C281.411 515.042 281.411 515.042 283.197 523.72C293.885 512.808 306.473 511.069 319.976 515.856C328.559 518.899 334.174 525.445 337.893 534.104ZM306.782 577.864C313.447 576.097 317.786 571.713 319.919 565.357C322.955 556.315 322.76 547.313 317.81 538.912C311.094 527.515 294.5 527.402 287.387 538.529C283.393 544.778 282.991 551.698 283.632 558.728C284.814 571.693 292.966 578.635 306.782 577.864Z" fill="#FDF8F4"/>
<path d="M378.796 513.83C388.784 512.946 397.856 513.954 406.072 521.85C406.273 519.063 406.494 517.373 406.5 515.682C406.533 506.686 406.61 497.689 406.455 488.695C406.403 485.643 407.473 484.503 410.494 484.625C414.319 484.779 418.16 484.747 421.986 484.59C424.934 484.468 426.122 485.508 426.115 488.601C426.038 522.088 426.048 555.575 426.095 589.062C426.099 591.667 425.488 593.159 422.506 593.071C417.864 592.936 413.215 593.035 408.203 593.035C407.854 590.138 407.547 587.591 407.181 584.543C403.701 587.077 400.817 589.851 397.4 591.555C378.768 600.841 357.876 591.446 351.303 570.601C347.549 558.699 347.682 546.628 352.508 534.875C357.308 523.184 365.826 516.044 378.796 513.83ZM406.97 557.22C406.12 551.865 406.081 546.209 404.225 541.229C401.588 534.149 395.814 530.262 387.935 530.333C380.134 530.404 374.582 534.296 371.421 541.176C367.389 549.951 367.565 559.053 371.573 567.749C375.914 577.168 386.132 580.786 395.465 576.638C403.441 573.094 405.871 565.996 406.97 557.22Z" fill="#FEFAF6"/>
<path d="M512.003 532.677C509.145 534.091 506.628 535.328 503.572 536.829C501.452 532.896 499.195 529.238 497.56 525.322C497.128 524.289 498.191 521.747 499.281 521.099C511.716 513.712 525.107 511.431 539.145 515.118C551.153 518.273 558.17 526.849 558.786 538.813C559.699 556.563 559.022 574.394 559.022 592.946C553.704 592.946 548.604 593.084 543.526 592.809C542.687 592.763 541.519 591.004 541.26 589.865C540.873 588.167 541.16 586.316 541.16 584.516C536.663 587.515 532.763 590.854 528.281 592.953C518.722 597.431 504.844 594.497 497.66 587.115C486.712 575.864 489.859 557.85 504.102 550.428C512.725 545.933 522.118 544.732 531.642 544.215C534.106 544.082 536.583 544.195 538.961 544.195C540.232 536.094 536.117 530.26 528.455 530.15C523.097 530.073 517.716 531.658 512.003 532.677ZM516.829 561.131C511.562 564.653 510.071 567.95 511.624 572.641C513.134 577.199 517.428 579.824 523.029 579.611C532.661 579.244 541.081 568.19 539.123 556.711C531.909 558.05 524.693 559.389 516.829 561.131Z" fill="#FDF9F4"/>
<path d="M460.041 521.81C460.021 524.35 460.02 526.447 460.02 528.544C460.461 528.689 460.901 528.833 461.341 528.978C462.453 527.48 463.536 525.959 464.681 524.486C469.653 518.095 475.978 514.135 484.274 514.308C485.585 514.336 487.915 515.907 487.98 516.885C488.345 522.312 488.155 527.775 488.155 533.272C486.701 533.448 485.873 533.689 485.072 533.623C471.687 532.522 461.563 543.114 461.02 557.407C460.628 567.726 460.757 578.071 460.906 588.401C460.955 591.797 460.028 593.3 456.439 593.093C452.452 592.864 448.419 593.276 444.456 592.895C443.225 592.776 441.163 590.994 441.155 589.96C440.968 565.319 441.009 540.675 441.009 515.222C446.834 515.222 452.297 514.912 457.662 515.499C458.664 515.609 459.272 519.319 460.041 521.81Z" fill="#FEF8F4"/>
<path d="M677.339 527.909C674.829 544.345 677.333 559.162 687.803 572.08C701.19 588.596 725.951 593.283 745.949 582.917C749.177 581.244 752.378 579.322 755.129 576.975C758.554 574.052 760.611 574.985 762.694 578.761C757.608 584.528 751.127 588.133 744.15 590.903C717.247 601.586 688.656 591.141 675.413 565.872C662.291 540.836 669.906 508.815 692.673 493.285C710.55 481.09 738.469 481.67 756.327 494.607C760.676 497.757 760.658 498.375 755.887 502.396C740.009 491.147 722.693 487.171 704.121 494.724C689.498 500.672 681.148 512.34 677.339 527.909Z" fill="#FCEEE3"/>
<path d="M818.767 594.8C799.429 595.139 785.058 586.135 779.273 570.372C772.981 553.229 777.682 533.542 790.611 522.892C805.247 510.835 827.448 512.527 837.953 526.659C843.222 533.747 844.966 541.952 844.83 550.696C844.773 554.338 842.502 554.034 840.108 554.031C823.454 554.009 806.8 554.011 790.147 554.006C788.203 554.005 786.259 554.006 783.897 554.006C783.693 565.896 787.222 575.494 796.445 581.999C811.134 592.36 825.565 589.691 839.246 579.632C843.667 584.019 843.901 585.128 838.687 587.625C832.482 590.595 825.738 592.439 818.767 594.8ZM803.501 547.873C814.762 547.873 826.022 547.873 837.749 547.873C837.354 537.855 834.627 529.627 826.359 524.66C816.73 518.875 806.764 520.02 797.525 525.813C789.713 530.71 785.425 538.035 784.425 547.874C790.906 547.874 796.704 547.874 803.501 547.873Z" fill="#FDEFE4"/>
<path d="M1094.17 535.821C1094.44 554.55 1094.61 572.857 1094.75 591.164C1094.75 591.613 1094.4 592.065 1094.2 592.547C1090.04 593.852 1087.73 592.928 1088.15 588.051C1088.35 585.614 1088.18 583.144 1088.18 579.252C1086.44 581.32 1085.53 582.331 1084.7 583.399C1075.65 594.986 1060.51 598.334 1047.5 591.494C1040.1 587.6 1036.12 581.408 1036.06 572.977C1036 563.4 1040.11 555.557 1049.03 552.398C1057.83 549.28 1067.35 548.114 1076.63 546.496C1080.15 545.883 1083.87 546.397 1087.34 546.397C1090.37 532.324 1082.62 522.09 1069.11 521.498C1060.68 521.129 1053.06 523.672 1046.21 528.205C1041.51 524.072 1041.59 522.817 1046.51 520.188C1054.69 515.815 1063.46 514.267 1072.62 515.255C1084.76 516.565 1091.06 522.579 1094.17 535.821ZM1074.62 552.662C1068.24 553.782 1061.69 554.322 1055.53 556.176C1048.64 558.253 1043.59 562.832 1043.04 570.723C1042.56 577.549 1045.43 582.793 1051.39 585.992C1059.03 590.089 1066.89 590.007 1074.14 585.207C1083.28 579.158 1087.08 569.905 1088.12 559.357C1088.79 552.614 1088.52 552.419 1081.58 552.488C1079.58 552.508 1077.59 552.585 1074.62 552.662Z" fill="#FCEDE2"/>
<path d="M958.256 541.001C958.253 549.499 957.769 557.537 958.418 565.482C958.839 570.632 960.097 576.067 962.443 580.62C965.719 586.978 972.529 587.526 978.895 587.506C980.401 592.854 979.704 593.851 974.842 593.762C963.705 593.557 955.361 587.145 952.917 576.188C951.841 571.365 951.616 566.291 951.53 561.321C951.34 550.327 951.339 539.324 951.566 528.331C951.647 524.422 950.42 522.703 946.47 523.238C945.98 523.304 945.32 523.429 944.999 523.184C943.78 522.258 942.669 521.191 941.517 520.177C942.656 519.161 943.923 517.161 944.911 517.29C950.784 518.062 952.143 515.302 951.564 510.14C951.231 507.178 951.708 504.131 951.456 501.153C951.054 496.394 952.763 494.558 958.117 496.376C958.117 502.894 958.117 509.649 958.117 517.112C963.845 517.112 968.976 516.9 974.069 517.252C975.441 517.347 976.696 519.155 978.004 520.177C976.702 521.215 975.485 522.982 974.08 523.149C970.464 523.576 966.753 523.474 963.102 523.244C959.502 523.017 957.902 524.18 958.156 528.008C958.43 532.156 958.243 536.335 958.256 541.001Z" fill="#FDEFE4"/>
<path d="M1000.73 557.198C1000.69 567.996 1000.64 578.317 1000.7 588.638C1000.71 591.256 1000.52 593.131 997.069 593.095C993.756 593.06 993.798 591.129 993.8 588.818C993.819 566.344 993.8 543.87 993.824 521.396C993.827 519.134 993.329 516.609 997.096 516.582C1001.1 516.553 1000.62 519.174 1000.62 521.668C1000.63 524.979 1000.62 528.29 1001.55 532.022C1002.62 530.563 1003.73 529.131 1004.75 527.643C1009.2 521.156 1014.96 516.715 1023.09 516.192C1028.82 515.823 1029.19 516.334 1028.52 522.431C1024.87 523.152 1020.95 523.333 1017.54 524.728C1011.57 527.162 1007.39 531.992 1005.33 537.945C1003.23 544.006 1002.23 550.447 1000.73 557.198Z" fill="#FCEDE2"/>
<path d="M1130.81 593.712C1120.97 592.067 1116.78 587.819 1116.74 578.947C1116.62 549.169 1116.68 519.39 1116.7 489.612C1116.7 488.652 1116.98 487.692 1117.12 486.796C1121.73 485.238 1123.2 486.859 1123.18 491.421C1123.04 518.204 1123.1 544.989 1123.13 571.773C1123.13 574.428 1123.13 577.115 1123.52 579.73C1124.15 583.914 1126.36 586.638 1130.93 587.236C1132.15 587.397 1133.21 588.872 1134.34 589.743C1133.29 591.066 1132.25 592.389 1130.81 593.712Z" fill="#FEF4E9"/>
<path d="M879.018 529.939C877.481 532.105 875.944 534.271 873.961 536.932C868.943 543.298 868.41 550.311 868.253 557.292C868.029 567.263 868.28 577.245 868.103 587.219C868.077 588.667 866.803 590.093 866.106 591.53C865.409 590.211 864.112 588.895 864.104 587.572C863.978 566.123 863.971 544.672 864.107 523.223C864.118 521.558 865.402 519.901 866.093 518.241C866.665 518.42 867.236 518.599 867.807 518.779C868.117 524.21 868.426 529.641 868.735 535.073C869.277 535.184 869.818 535.295 870.359 535.406C871.239 533.606 872.119 531.807 873 530.007C873 530.007 872.998 530 873.221 529.868C873.572 529.43 873.698 529.123 873.825 528.816C873.825 528.816 873.998 528.993 874.188 528.97C874.568 528.95 874.756 528.953 875.286 528.872C876.373 527.48 877.119 526.171 877.864 524.862C877.864 524.862 878 524.998 878.26 524.885C879.352 523.86 880.186 522.947 881.019 522.035C881.019 522.035 881 521.998 881.375 521.955C883.862 520.935 885.914 519.791 888.096 519.011C896.082 516.156 904.342 514.84 912.38 518.102C921.776 521.916 924.798 530.193 924.941 539.55C925.177 555.027 925.039 570.51 924.996 585.991C924.992 587.481 924.544 588.969 924.302 590.458C923.785 590.473 923.269 590.487 922.752 590.501C922.489 588.699 922.035 586.902 921.993 585.095C921.623 569.306 921.554 553.506 920.86 537.732C920.668 533.368 920.334 528.263 915.162 525.927C915.162 525.927 915.072 525.928 914.989 525.597C914.284 524.839 913.662 524.412 913.04 523.985C913.04 523.985 913.004 524.009 912.888 523.658C905.1 517.953 890.448 519.319 884.995 525.896C884.995 525.896 884.781 526.172 884.272 526.187C883.203 526.537 882.643 526.871 882.083 527.206C881.627 527.772 881.171 528.339 880.235 529.104C879.477 529.478 879.232 529.69 879.018 529.939Z" fill="#FEFAF6"/>
<path d="M915.263 526.27C920.334 528.263 920.668 533.368 920.86 537.732C921.554 553.506 921.623 569.306 921.993 585.095C922.035 586.902 922.489 588.699 922.752 590.501C923.269 590.487 923.785 590.473 924.302 590.458C924.544 588.969 924.992 587.481 924.996 585.991C925.039 570.51 925.177 555.027 924.941 539.55C924.798 530.193 921.776 521.916 912.38 518.102C904.342 514.84 896.082 516.156 888.096 519.011C885.914 519.791 883.862 520.935 881.393 521.966C889.56 514.516 905.504 512.567 915.247 517.749C920.259 520.414 923.536 524.503 924.832 529.909C925.834 534.091 926.63 538.428 926.697 542.71C926.934 558.032 926.828 573.359 926.832 588.685C926.832 589.827 926.669 590.969 926.589 592.03C920.708 593.836 920.046 593.396 920.037 587.63C920.015 573.304 920.077 558.978 920.006 544.652C919.974 538.279 919.391 531.988 915.263 526.27Z" fill="#FCECE0"/>
<path d="M872.64 530.19C872.119 531.807 871.239 533.606 870.359 535.406C869.818 535.295 869.277 535.184 868.735 535.073C868.426 529.641 868.117 524.21 867.807 518.779C867.236 518.599 866.665 518.42 866.093 518.241C865.402 519.901 864.118 521.558 864.107 523.223C863.971 544.672 863.978 566.123 864.104 587.572C864.112 588.895 865.409 590.211 866.106 591.53C866.803 590.093 868.077 588.667 868.103 587.219C868.28 577.245 868.029 567.263 868.253 557.292C868.41 550.311 868.943 543.298 873.8 537.23C868.968 547.496 869.925 558.737 869.89 569.849C869.872 575.844 869.654 581.852 869.958 587.832C870.209 592.766 868.335 594.231 863.362 592.601C863.362 567.558 863.362 542.383 863.362 517.25C869.552 515.779 869.884 516.029 869.886 521.986C869.887 524.318 869.73 526.666 869.986 528.968C870.047 529.515 871.48 529.909 872.64 530.19Z" fill="#F9D1B9"/>
<path d="M885.361 525.858C890.448 519.319 905.1 517.953 912.892 523.637C903.605 519.997 894.529 520.892 885.361 525.858Z" fill="#FCECE0"/>
<path d="M877.565 524.931C877.119 526.171 876.373 527.48 875.256 528.542C874.844 528.078 874.805 527.86 874.765 527.643C875.599 526.762 876.433 525.881 877.565 524.931Z" fill="#FCECE0"/>
<path d="M880.706 522.102C880.186 522.947 879.352 523.86 878.19 524.819C878.705 523.967 879.55 523.068 880.706 522.102Z" fill="#FCECE0"/>
<path d="M913.135 524.26C913.662 524.412 914.284 524.839 914.99 525.552C914.459 525.403 913.845 524.969 913.135 524.26Z" fill="#FCECE0"/>
<path d="M882.423 527.175C882.643 526.871 883.203 526.537 884.098 526.194C883.876 526.505 883.319 526.824 882.423 527.175Z" fill="#FCECE0"/>
<path d="M874.524 527.761C874.805 527.86 874.844 528.078 874.914 528.627C874.756 528.953 874.568 528.95 874.105 528.879C873.981 528.501 874.132 528.19 874.524 527.761Z" fill="#F9D1B9"/>
<path d="M873.569 528.909C873.698 529.123 873.572 529.43 873.225 529.867C873.107 529.666 873.21 529.334 873.569 528.909Z" fill="#F9D1B9"/>
<path d="M879.298 529.971C879.232 529.69 879.477 529.478 879.978 529.208C879.994 529.41 879.786 529.706 879.298 529.971Z" fill="#FCECE0"/>
<path d="M306.367 577.945C292.966 578.635 284.814 571.693 283.632 558.728C282.991 551.698 283.393 544.778 287.387 538.529C294.5 527.402 311.094 527.515 317.81 538.912C322.76 547.313 322.955 556.315 319.919 565.357C317.786 571.713 313.447 576.097 306.367 577.945Z" fill="#D05318"/>
<path d="M406.963 557.668C405.871 565.996 403.441 573.094 395.465 576.638C386.132 580.786 375.914 577.168 371.573 567.749C367.565 559.053 367.389 549.951 371.421 541.176C374.582 534.296 380.134 530.404 387.935 530.333C395.814 530.262 401.588 534.149 404.225 541.229C406.081 546.209 406.12 551.865 406.963 557.668Z" fill="#CF5318"/>
<path d="M517.153 560.93C524.693 559.389 531.909 558.05 539.123 556.711C541.081 568.19 532.661 579.244 523.029 579.611C517.428 579.824 513.134 577.199 511.624 572.641C510.071 567.95 511.562 564.653 517.153 560.93Z" fill="#CD561D"/>
<path d="M803.002 547.873C796.704 547.874 790.906 547.874 784.425 547.874C785.425 538.035 789.713 530.71 797.525 525.813C806.764 520.02 816.73 518.875 826.359 524.66C834.627 529.627 837.354 537.855 837.749 547.873C826.022 547.873 814.762 547.873 803.002 547.873Z" fill="#D05419"/>
<path d="M1075.1 552.649C1077.59 552.585 1079.58 552.508 1081.58 552.488C1088.52 552.419 1088.79 552.614 1088.12 559.357C1087.08 569.905 1083.28 579.158 1074.14 585.207C1066.89 590.007 1059.03 590.089 1051.39 585.992C1045.43 582.793 1042.56 577.549 1043.04 570.723C1043.59 562.832 1048.64 558.253 1055.53 556.176C1061.69 554.322 1068.24 553.782 1075.1 552.649Z" fill="#CF5419"/>
</svg>