<?xml version="1.0" encoding="utf-8"?>
<!DOCTYPE svg PUBLIC "-//W3C//DTD SVG 1.1//EN" "http://www.w3.org/Graphics/SVG/1.1/DTD/svg11.dtd">
<svg version="1.1" id="Layer_1" xmlns="http://www.w3.org/2000/svg" xmlns:xlink="http://www.w3.org/1999/xlink" x="0px" y="0px"
	 width="24px" height="24px" viewBox="0 0 18 18" enable-background="new 0 0 20 20" xml:space="preserve">
	<g>
		<path d="M14.9 9c0-.3.1-.6.1-1 0-2.2-1.8-4-4-4-1.6 0-2.9.9-3.6 2.2-.2-.1-.6-.2-.9-.2C5.1 6 4 7.1 4 8.5c0 .2 0 .4.1.5-1.8.3-3.1 1.7-3.1 3.5C1 14.4 2.6 16 4.5 16h10c1.9 0 3.5-1.6 3.5-3.5 0-1.8-1.3-3.3-3.1-3.5z" fill="#93959D"/>
	</g>
</svg>