<?xml version="1.0" encoding="utf-8"?>
<!DOCTYPE svg PUBLIC "-//W3C//DTD SVG 1.1//EN" "http://www.w3.org/Graphics/SVG/1.1/DTD/svg11.dtd">
<svg version="1.1" id="Layer_1" xmlns="http://www.w3.org/2000/svg" xmlns:xlink="http://www.w3.org/1999/xlink" x="0px" y="0px"
	 width="22px" height="22px" viewBox="0 0 20 20" enable-background="new 0 0 20 20" xml:space="preserve">
	<g>
		<path d="M5 3h14v11h-2v2h-2v2H1V7h2V5h2V3zm13 10V4H6v9h12zm-3-4c-1.1 0-2-.9-2-2s.9-2 2-2 2 .9 2 2-.9 2-2 2zm1 6v-1H5V6H4v9h12zM7 6l10 6H7V6zm7 11v-1H3V8H2v9h12z" fill="#93959D"/>
	</g>
</svg>