<?xml version="1.0" encoding="utf-8"?>
<!-- Generator: Adobe Illustrator 26.3.1, SVG Export Plug-In . SVG Version: 6.00 Build 0)  -->
<svg version="1.1" id="Layer_1" xmlns="http://www.w3.org/2000/svg" xmlns:xlink="http://www.w3.org/1999/xlink" x="0px" y="0px"
	 viewBox="0 0 1398 211" style="enable-background:new 0 0 1398 211;" xml:space="preserve">
<style type="text/css">
	.st0{fill:#1A54A9;}
</style>
<path class="st0" d="M831.1,6.3v198.3c0,1.7-0.7,3.3-1.8,4.5c-1.2,1.2-2.8,1.9-4.5,1.9h-98.9V105.5h46.3c1.7,0,3.3-0.7,4.5-1.9
	c1.2-1.2,1.9-2.8,1.9-4.5V59.1c0-1.7-0.7-3.3-1.9-4.5c-1.2-1.2-2.8-1.9-4.5-1.9H627c-1.7,0-3.3,0.7-4.5,1.9
	c-1.2,1.2-1.8,2.8-1.8,4.5v40.1c0,1.7,0.7,3.3,1.8,4.5c1.2,1.2,2.8,1.9,4.5,1.9h46.3V211h-98.9c-1.7,0-3.3-0.7-4.5-1.9
	c-1.2-1.2-1.8-2.8-1.8-4.5V6.3c0-1.7,0.7-3.3,1.8-4.5c1.2-1.2,2.8-1.9,4.5-1.9h250.4c1.7,0,3.3,0.7,4.5,1.9
	C830.4,3,831.1,4.7,831.1,6.3z"/>
</svg>
